<svg width="154" height="154" viewBox="0 0 154 154" fill="none" xmlns="http://www.w3.org/2000/svg">
<rect width="154" height="154" fill="#FC820F"/>
<path d="M76.9958 102.791L76.9951 115.624H25.8992V89.9573H76.9951L76.9958 102.791ZM98.2956 64.1964C114.756 64.1965 128.101 77.5411 128.101 94.0021V115.614H102.435V94.0021C102.435 91.7162 100.581 89.8628 98.2949 89.8628H77.0831V64.1964H98.2956ZM77.0831 64.1654L40.4297 64.1661V38.4996H77.0838L77.0831 64.1654Z" fill="#FFFCF1"/>
<path d="M105.111 34.0149C110.215 34.0149 114.354 38.1989 114.354 43.3596C114.354 46.3769 112.937 49.0583 110.742 50.7666L110.799 50.7738L110.422 51.0039C110.079 51.2485 109.718 51.47 109.342 51.6662L98.7875 58.134L88.4308 51.8126C87.8296 51.5287 87.2639 51.1825 86.7414 50.7825L86.7277 50.7738L86.7298 50.7731C84.5059 49.065 83.0711 46.3804 83.071 43.3596C83.0712 38.199 87.2545 34.0151 92.4149 34.0149C94.8832 34.0149 97.1272 34.9735 98.7976 36.5368C100.45 34.9734 102.669 34.015 105.111 34.0149Z" fill="#A0E871"/>
</svg>
