<svg width="261" height="122" viewBox="0 0 261 122" fill="none" xmlns="http://www.w3.org/2000/svg">
<mask id="mask0_513_10467" style="mask-type:alpha" maskUnits="userSpaceOnUse" x="69" y="0" width="123" height="122">
<path d="M69.5 61C69.5 10.7665 80.2665 0 130.5 0C180.733 0 191.5 10.7665 191.5 61C191.5 111.233 180.733 122 130.5 122C80.2665 122 69.5 111.233 69.5 61Z" fill="#FF8F26"/>
</mask>
<g mask="url(#mask0_513_10467)">
<rect width="122" height="122" transform="translate(69.5)" fill="#3F3CD6"/>
<path d="M130.497 81.4313L130.496 91.5979H90.0176V71.2647H130.496L130.497 81.4313ZM147.371 50.8567C160.411 50.8568 170.983 61.4285 170.983 74.469V91.5905H150.65V74.469C150.65 72.6581 149.181 71.1898 147.37 71.1898H130.566V50.8567H147.371ZM130.566 50.8321L101.529 50.8327V30.4995H130.566L130.566 50.8321Z" fill="#FFFCF1"/>
<path d="M152.771 26.9468C156.815 26.9468 160.093 30.2614 160.093 34.3497C160.093 36.7401 158.971 38.8643 157.232 40.2176L157.277 40.2233L156.979 40.4056C156.706 40.5994 156.42 40.7748 156.122 40.9303L147.761 46.0541L139.557 41.0463C139.08 40.8214 138.632 40.5471 138.218 40.2302L138.207 40.2233L138.209 40.2228C136.447 38.8696 135.311 36.7429 135.311 34.3497C135.311 30.2615 138.625 26.9469 142.713 26.9468C144.668 26.9468 146.446 27.7062 147.769 28.9447C149.078 27.7061 150.837 26.9468 152.771 26.9468Z" fill="#A0E871"/>
<path d="M130.497 81.4313L130.496 91.5979H90.0176V71.2647H130.496L130.497 81.4313ZM147.371 50.8567C160.411 50.8568 170.983 61.4285 170.983 74.469V91.5905H150.65V74.469C150.65 72.6581 149.181 71.1898 147.37 71.1898H130.566V50.8567H147.371ZM130.566 50.8321L101.529 50.8327V30.4995H130.566L130.566 50.8321Z" fill="#FFFCF1"/>
<path d="M152.769 26.9468C156.813 26.9468 160.091 30.2614 160.091 34.3497C160.091 36.7401 158.969 38.8643 157.23 40.2176L157.275 40.2233L156.977 40.4056C156.704 40.5994 156.418 40.7748 156.121 40.9303L147.759 46.0541L139.555 41.0463C139.078 40.8214 138.63 40.5471 138.216 40.2302L138.205 40.2233L138.207 40.2228C136.445 38.8696 135.309 36.7429 135.309 34.3497C135.309 30.2615 138.623 26.9469 142.711 26.9468C144.666 26.9468 146.444 27.7062 147.767 28.9447C149.076 27.7061 150.835 26.9468 152.769 26.9468Z" fill="#A0E871"/>
</g>
<rect x="37.0195" y="5.94141" width="75.1153" height="30.5577" rx="15.2788" fill="#3BB64B"/>
<path d="M47.1974 10.9705H56.8578C58.2867 10.9705 59.4671 11.1258 60.399 11.4364C61.3515 11.7264 62.097 12.1716 62.6355 12.7721C63.1946 13.3727 63.5777 14.1182 63.7848 15.0086C64.0126 15.8784 64.1265 16.8931 64.1265 18.0527C64.1265 19.2331 64.0126 20.2892 63.7848 21.2211C63.557 22.1323 63.1635 22.8985 62.6044 23.5197C62.0453 24.141 61.2998 24.6173 60.3679 24.9486C59.436 25.2592 58.266 25.4145 56.8578 25.4145H55.2737V31.7202H47.1974V10.9705ZM55.8328 19.699C56.1848 19.699 56.4126 19.6059 56.5162 19.4195C56.6197 19.2331 56.6715 18.9121 56.6715 18.4566C56.6715 18.0838 56.63 17.8146 56.5472 17.6489C56.4644 17.4833 56.2469 17.4004 55.8949 17.4004H55.2115V19.699H55.8328ZM73.3336 24.8554H72.3085L73.1472 31.7202H64.7914V10.9705H74.1722C75.6011 10.9705 76.7918 11.1155 77.7444 11.4054C78.7177 11.6953 79.4943 12.1302 80.0741 12.71C80.6746 13.2898 81.0992 14.0043 81.3477 14.8533C81.5962 15.7023 81.7204 16.6756 81.7204 17.7732C81.7204 19.0778 81.5444 20.2168 81.1924 21.19C80.8403 22.1633 80.2501 22.9503 79.4218 23.5508L79.8567 25.5699H81.6583V31.7202H74.2965L73.3336 24.8554ZM73.1161 19.6059C73.4682 19.6059 73.6959 19.523 73.7995 19.3574C73.903 19.171 73.9548 18.8707 73.9548 18.4566C73.9548 18.0838 73.9134 17.8146 73.8306 17.6489C73.7477 17.4833 73.5303 17.4004 73.1782 17.4004H72.3396V19.6059H73.1161ZM82.3477 21.3454C82.3477 19.4195 82.5548 17.7835 82.969 16.4375C83.3831 15.0915 83.994 13.9939 84.8017 13.1449C85.6093 12.2751 86.6033 11.6435 87.7837 11.2501C88.964 10.8566 90.3101 10.6599 91.8218 10.6599C93.3335 10.6599 94.6795 10.8566 95.8599 11.2501C97.0403 11.6435 98.0343 12.2751 98.8419 13.1449C99.6495 13.9939 100.26 15.0915 100.675 16.4375C101.089 17.7835 101.296 19.4195 101.296 21.3454C101.296 23.2712 101.089 24.9072 100.675 26.2532C100.26 27.5993 99.6495 28.7072 98.8419 29.5769C98.0343 30.4259 97.0403 31.0472 95.8599 31.4407C94.6795 31.8341 93.3335 32.0308 91.8218 32.0308C90.3101 32.0308 88.964 31.8341 87.7837 31.4407C86.6033 31.0472 85.6093 30.4259 84.8017 29.5769C83.994 28.7072 83.3831 27.5993 82.969 26.2532C82.5548 24.9072 82.3477 23.2712 82.3477 21.3454ZM90.7346 21.3454C90.7346 22.1323 90.7449 22.7742 90.7657 23.2712C90.8071 23.7682 90.8588 24.1617 90.921 24.4516C91.0038 24.7208 91.1177 24.9072 91.2627 25.0107C91.4076 25.0936 91.594 25.135 91.8218 25.135C92.0496 25.135 92.2359 25.0936 92.3809 25.0107C92.5259 24.9072 92.6294 24.7208 92.6915 24.4516C92.7744 24.1617 92.8261 23.7682 92.8468 23.2712C92.8883 22.7742 92.909 22.1323 92.909 21.3454C92.909 20.5584 92.8883 19.9165 92.8468 19.4195C92.8261 18.9225 92.7744 18.5394 92.6915 18.2702C92.6294 17.9803 92.5259 17.7939 92.3809 17.7111C92.2359 17.6075 92.0496 17.5557 91.8218 17.5557C91.594 17.5557 91.4076 17.6075 91.2627 17.7111C91.1177 17.7939 91.0038 17.9803 90.921 18.2702C90.8588 18.5394 90.8071 18.9225 90.7657 19.4195C90.7449 19.9165 90.7346 20.5584 90.7346 21.3454Z" fill="#FFFEF8"/>
</svg>
