<svg width="155" height="122" viewBox="0 0 155 122" fill="none" xmlns="http://www.w3.org/2000/svg">
<mask id="mask0_513_10468" style="mask-type:alpha" maskUnits="userSpaceOnUse" x="32" y="0" width="123" height="122">
<path d="M32.4805 61C32.4805 10.7665 43.247 0 93.4805 0C143.714 0 154.48 10.7665 154.48 61C154.48 111.233 143.714 122 93.4805 122C43.247 122 32.4805 111.233 32.4805 61Z" fill="#FF8F26"/>
</mask>
<g mask="url(#mask0_513_10468)">
<rect width="122" height="122" transform="translate(32.4805)" fill="#3F3CD6"/>
<path d="M93.4772 81.4313L93.4766 91.5979H52.998V71.2647H93.4766L93.4772 81.4313ZM110.351 50.8567C123.391 50.8568 133.963 61.4285 133.963 74.469V91.5905H113.63V74.469C113.63 72.6581 112.161 71.1898 110.351 71.1898H93.5464V50.8567H110.351ZM93.5464 50.8321L64.5092 50.8327V30.4995H93.5469L93.5464 50.8321Z" fill="#FFFCF1"/>
<path d="M115.751 26.9468C119.795 26.9468 123.073 30.2614 123.074 34.3497C123.073 36.7401 121.951 38.8643 120.212 40.2176L120.257 40.2233L119.959 40.4056C119.687 40.5994 119.401 40.7748 119.103 40.9303L110.742 46.0541L102.537 41.0463C102.061 40.8214 101.613 40.5471 101.199 40.2302L101.188 40.2233L101.19 40.2228C99.4277 38.8696 98.2911 36.7429 98.291 34.3497C98.2911 30.2615 101.605 26.9469 105.693 26.9468C107.649 26.9468 109.426 27.7062 110.75 28.9447C112.059 27.7061 113.817 26.9468 115.751 26.9468Z" fill="#A0E871"/>
<path d="M93.4772 81.4313L93.4766 91.5979H52.998V71.2647H93.4766L93.4772 81.4313ZM110.351 50.8567C123.391 50.8568 133.963 61.4285 133.963 74.469V91.5905H113.63V74.469C113.63 72.6581 112.161 71.1898 110.351 71.1898H93.5464V50.8567H110.351ZM93.5464 50.8321L64.5092 50.8327V30.4995H93.5469L93.5464 50.8321Z" fill="#FFFCF1"/>
<path d="M115.749 26.9468C119.793 26.9468 123.071 30.2614 123.072 34.3497C123.071 36.7401 121.949 38.8643 120.21 40.2176L120.255 40.2233L119.957 40.4056C119.685 40.5994 119.399 40.7748 119.101 40.9303L110.74 46.0541L102.535 41.0463C102.059 40.8214 101.611 40.5471 101.197 40.2302L101.186 40.2233L101.188 40.2228C99.4258 38.8696 98.2891 36.7429 98.2891 34.3497C98.2891 30.2615 101.603 26.9469 105.691 26.9468C107.647 26.9468 109.424 27.7062 110.748 28.9447C112.057 27.7061 113.815 26.9468 115.749 26.9468Z" fill="#A0E871"/>
</g>
<rect y="5.94141" width="75.1153" height="30.5577" rx="15.2788" fill="#3BB64B"/>
<path d="M10.1779 10.9705H19.8383C21.2672 10.9705 22.4476 11.1258 23.3794 11.4364C24.332 11.7264 25.0775 12.1716 25.6159 12.7721C26.175 13.3727 26.5582 14.1182 26.7652 15.0086C26.993 15.8784 27.1069 16.8931 27.1069 18.0527C27.1069 19.2331 26.993 20.2892 26.7652 21.2211C26.5374 22.1323 26.144 22.8985 25.5849 23.5197C25.0257 24.141 24.2802 24.6173 23.3484 24.9486C22.4165 25.2592 21.2465 25.4145 19.8383 25.4145H18.2541V31.7202H10.1779V10.9705ZM18.8132 19.699C19.1653 19.699 19.3931 19.6059 19.4966 19.4195C19.6002 19.2331 19.6519 18.9121 19.6519 18.4566C19.6519 18.0838 19.6105 17.8146 19.5277 17.6489C19.4449 17.4833 19.2274 17.4004 18.8754 17.4004H18.192V19.699H18.8132ZM36.314 24.8554H35.289L36.1276 31.7202H27.7719V10.9705H37.1527C38.5816 10.9705 39.7723 11.1155 40.7249 11.4054C41.6982 11.6953 42.4747 12.1302 43.0546 12.71C43.6551 13.2898 44.0796 14.0043 44.3281 14.8533C44.5766 15.7023 44.7009 16.6756 44.7009 17.7732C44.7009 19.0778 44.5249 20.2168 44.1728 21.19C43.8208 22.1633 43.2306 22.9503 42.4023 23.5508L42.8371 25.5699H44.6388V31.7202H37.277L36.314 24.8554ZM36.0966 19.6059C36.4486 19.6059 36.6764 19.523 36.78 19.3574C36.8835 19.171 36.9353 18.8707 36.9353 18.4566C36.9353 18.0838 36.8939 17.8146 36.811 17.6489C36.7282 17.4833 36.5108 17.4004 36.1587 17.4004H35.32V19.6059H36.0966ZM45.3282 21.3454C45.3282 19.4195 45.5353 17.7835 45.9494 16.4375C46.3636 15.0915 46.9745 13.9939 47.7821 13.1449C48.5898 12.2751 49.5838 11.6435 50.7641 11.2501C51.9445 10.8566 53.2905 10.6599 54.8022 10.6599C56.3139 10.6599 57.66 10.8566 58.8404 11.2501C60.0207 11.6435 61.0147 12.2751 61.8224 13.1449C62.63 13.9939 63.2409 15.0915 63.655 16.4375C64.0692 17.7835 64.2763 19.4195 64.2763 21.3454C64.2763 23.2712 64.0692 24.9072 63.655 26.2532C63.2409 27.5993 62.63 28.7072 61.8224 29.5769C61.0147 30.4259 60.0207 31.0472 58.8404 31.4407C57.66 31.8341 56.3139 32.0308 54.8022 32.0308C53.2905 32.0308 51.9445 31.8341 50.7641 31.4407C49.5838 31.0472 48.5898 30.4259 47.7821 29.5769C46.9745 28.7072 46.3636 27.5993 45.9494 26.2532C45.5353 24.9072 45.3282 23.2712 45.3282 21.3454ZM53.7151 21.3454C53.7151 22.1323 53.7254 22.7742 53.7461 23.2712C53.7875 23.7682 53.8393 24.1617 53.9014 24.4516C53.9843 24.7208 54.0982 24.9072 54.2431 25.0107C54.3881 25.0936 54.5745 25.135 54.8022 25.135C55.03 25.135 55.2164 25.0936 55.3614 25.0107C55.5063 24.9072 55.6099 24.7208 55.672 24.4516C55.7548 24.1617 55.8066 23.7682 55.8273 23.2712C55.8687 22.7742 55.8894 22.1323 55.8894 21.3454C55.8894 20.5584 55.8687 19.9165 55.8273 19.4195C55.8066 18.9225 55.7548 18.5394 55.672 18.2702C55.6099 17.9803 55.5063 17.7939 55.3614 17.7111C55.2164 17.6075 55.03 17.5557 54.8022 17.5557C54.5745 17.5557 54.3881 17.6075 54.2431 17.7111C54.0982 17.7939 53.9843 17.9803 53.9014 18.2702C53.8393 18.5394 53.7875 18.9225 53.7461 19.4195C53.7254 19.9165 53.7151 20.5584 53.7151 21.3454Z" fill="#FFFEF8"/>
</svg>
