<svg width="292" height="172" viewBox="0 0 292 172" fill="none" xmlns="http://www.w3.org/2000/svg">
<path d="M147.266 19.7581H158.221C168.592 19.7583 177 28.1662 177 38.5374V53.1653L168.654 53.1663H160.308V38.5374C160.308 37.3852 159.373 36.4505 158.22 36.4505H147.167V53.0501L115 53.0491L115 44.7034V36.3577L147.092 36.3568V19.8314H124.737V3.138H147.266V19.7581Z" fill="#4542EB"/>
<path d="M168.257 0C171.906 0.000193526 174.864 2.95836 174.864 6.60742C174.864 8.53455 174.038 10.2678 172.721 11.4756L172.777 11.4766L172.559 11.6182C172.119 11.9966 171.63 12.3193 171.1 12.5723L163.735 17.3877L156.601 12.6768C155.883 12.367 155.231 11.9329 154.672 11.4023L154.519 11.3018H154.566C153.357 10.1043 152.607 8.44368 152.607 6.60742C152.607 2.95825 155.565 1.82973e-05 159.215 0C160.964 0 162.553 0.681211 163.735 1.79102C164.917 0.681017 166.507 0 168.257 0Z" fill="#3BB64B"/>
<path d="M31.4738 106.022H29.3618L31.0898 120.166H13.8738V77.4143H33.2018C36.1458 77.4143 38.5991 77.713 40.5618 78.3103C42.5671 78.9077 44.1671 79.8037 45.3618 80.9983C46.5991 82.193 47.4738 83.665 47.9858 85.4143C48.4978 87.1637 48.7537 89.169 48.7537 91.4303C48.7537 94.1183 48.3911 96.465 47.6658 98.4703C46.9404 100.476 45.7244 102.097 44.0178 103.334L44.9137 107.494H48.6258V120.166H33.4578L31.4738 106.022ZM31.0258 95.2063C31.7511 95.2063 32.2204 95.0357 32.4338 94.6943C32.6471 94.3103 32.7538 93.6917 32.7538 92.8383C32.7538 92.0703 32.6684 91.5157 32.4978 91.1743C32.3271 90.833 31.8791 90.6623 31.1538 90.6623H29.4258V95.2063H31.0258ZM50.6863 77.4143H77.1183V90.8543H64.7663V93.2223H74.8143V104.742H64.7663V106.726H77.1183V120.166H50.6863V77.4143ZM86.4138 77.4143H108.366L116.43 120.166H98.8938L98.7658 110.246H96.2058L96.0778 120.166H78.4138L86.4138 77.4143ZM96.3978 99.0463H98.5738L98.4458 90.1503H96.5258L96.3978 99.0463ZM117.999 77.4143H136.111C139.609 77.4143 142.575 77.7983 145.007 78.5663C147.439 79.3343 149.423 80.5717 150.959 82.2783C152.495 83.9423 153.604 86.1183 154.287 88.8063C154.969 91.4517 155.311 94.673 155.311 98.4703C155.311 102.438 154.948 105.809 154.223 108.582C153.497 111.313 152.367 113.553 150.831 115.302C149.295 117.009 147.311 118.246 144.879 119.014C142.447 119.782 139.524 120.166 136.111 120.166H117.999V77.4143ZM134.703 107.878C135.343 107.878 135.876 107.729 136.303 107.43C136.729 107.132 137.071 106.641 137.327 105.958C137.583 105.276 137.753 104.38 137.839 103.27C137.967 102.118 138.031 100.71 138.031 99.0463C138.031 95.9743 137.817 93.8623 137.391 92.7103C136.964 91.5583 136.153 90.9823 134.959 90.9823H134.511V107.878H134.703ZM162.13 106.534L152.914 77.4143H170.002L170.45 91.9423H172.114L172.562 77.4143H189.65L178.77 106.534V120.166H162.13V106.534ZM215.106 90.2783H207.234V77.4143H239.618V90.2783H231.746V120.166H215.106V90.2783ZM239.734 98.7903C239.734 94.8223 240.16 91.4517 241.014 88.6783C241.867 85.905 243.126 83.6437 244.79 81.8943C246.454 80.1023 248.502 78.801 250.934 77.9903C253.366 77.1797 256.139 76.7743 259.254 76.7743C262.368 76.7743 265.142 77.1797 267.574 77.9903C270.006 78.801 272.054 80.1023 273.718 81.8943C275.382 83.6437 276.64 85.905 277.494 88.6783C278.347 91.4517 278.774 94.8223 278.774 98.7903C278.774 102.758 278.347 106.129 277.494 108.902C276.64 111.676 275.382 113.958 273.718 115.75C272.054 117.5 270.006 118.78 267.574 119.59C265.142 120.401 262.368 120.806 259.254 120.806C256.139 120.806 253.366 120.401 250.934 119.59C248.502 118.78 246.454 117.5 244.79 115.75C243.126 113.958 241.867 111.676 241.014 108.902C240.16 106.129 239.734 102.758 239.734 98.7903ZM257.014 98.7903C257.014 100.412 257.035 101.734 257.078 102.758C257.163 103.782 257.27 104.593 257.398 105.19C257.568 105.745 257.803 106.129 258.102 106.342C258.4 106.513 258.784 106.598 259.254 106.598C259.723 106.598 260.107 106.513 260.406 106.342C260.704 106.129 260.918 105.745 261.046 105.19C261.216 104.593 261.323 103.782 261.366 102.758C261.451 101.734 261.494 100.412 261.494 98.7903C261.494 97.169 261.451 95.8463 261.366 94.8223C261.323 93.7983 261.216 93.009 261.046 92.4543C260.918 91.857 260.704 91.473 260.406 91.3023C260.107 91.089 259.723 90.9823 259.254 90.9823C258.784 90.9823 258.4 91.089 258.102 91.3023C257.803 91.473 257.568 91.857 257.398 92.4543C257.27 93.009 257.163 93.7983 257.078 94.8223C257.035 95.8463 257.014 97.169 257.014 98.7903ZM45.667 171.166V157.662H58.659C59.8537 157.662 60.6217 157.598 60.963 157.47C61.3043 157.3 61.475 156.937 61.475 156.382C61.475 155.913 61.347 155.614 61.091 155.486C60.8777 155.358 60.3657 155.294 59.555 155.294H55.587C51.9603 155.294 49.2083 154.249 47.331 152.158C45.4537 150.025 44.515 146.889 44.515 142.75C44.515 137.844 45.8163 134.238 48.419 131.934C51.0217 129.588 54.6483 128.414 59.299 128.414H78.179V141.726H65.123C64.5683 141.726 64.1843 141.854 63.971 142.11C63.8003 142.324 63.715 142.601 63.715 142.942C63.715 143.369 63.843 143.668 64.099 143.838C64.3977 144.009 64.9097 144.094 65.635 144.094H68.067C70.115 144.094 71.843 144.329 73.251 144.798C74.7017 145.268 75.875 146.014 76.771 147.038C77.667 148.062 78.307 149.406 78.691 151.07C79.1177 152.692 79.331 154.676 79.331 157.022C79.331 159.71 79.0537 161.95 78.499 163.742C77.987 165.534 77.091 166.985 75.811 168.094C74.5737 169.204 72.9523 169.993 70.947 170.462C68.9417 170.932 66.467 171.166 63.523 171.166H45.667ZM88.512 141.278H80.64V128.414H113.024V141.278H105.152V171.166H88.512V141.278ZM117.258 128.414H139.21L147.274 171.166H129.738L129.61 161.246H127.05L126.922 171.166H109.258L117.258 128.414ZM127.242 150.046H129.418L129.29 141.15H127.37L127.242 150.046ZM166.443 157.022H164.331L166.059 171.166H148.843V128.414H168.171C171.115 128.414 173.568 128.713 175.531 129.31C177.536 129.908 179.136 130.804 180.331 131.998C181.568 133.193 182.443 134.665 182.955 136.414C183.467 138.164 183.722 140.169 183.722 142.43C183.722 145.118 183.36 147.465 182.635 149.47C181.909 151.476 180.693 153.097 178.987 154.334L179.882 158.494H183.595V171.166H168.427L166.443 157.022ZM165.995 146.206C166.72 146.206 167.189 146.036 167.403 145.694C167.616 145.31 167.723 144.692 167.723 143.838C167.723 143.07 167.637 142.516 167.467 142.174C167.296 141.833 166.848 141.662 166.123 141.662H164.395V146.206H165.995ZM192.637 141.278H184.765V128.414H217.149V141.278H209.277V171.166H192.637V141.278ZM231.189 159.006L219.733 158.75L218.709 153.054C218.111 149.897 218.623 147.636 220.245 146.27C221.866 144.862 224.49 144.158 228.117 144.158H229.845C230.57 144.158 231.061 144.073 231.317 143.902C231.573 143.732 231.701 143.412 231.701 142.942C231.701 142.558 231.594 142.26 231.381 142.046C231.21 141.833 230.847 141.726 230.293 141.726H218.773V128.414H233.045C235.775 128.414 238.058 128.606 239.893 128.99C241.77 129.374 243.263 130.078 244.373 131.102C245.482 132.126 246.271 133.513 246.741 135.262C247.253 136.969 247.509 139.166 247.509 141.854C247.509 144.329 247.295 146.441 246.869 148.19C246.485 149.897 245.802 151.284 244.821 152.35C243.882 153.374 242.623 154.121 241.045 154.59C239.509 155.06 237.589 155.294 235.285 155.294H234.325C233.685 155.294 233.194 155.465 232.853 155.806C232.554 156.105 232.298 156.51 232.085 157.022L231.189 159.006ZM219.861 165.918C219.861 161.993 221.823 160.03 225.749 160.03C229.674 160.03 231.637 161.993 231.637 165.918C231.637 167.838 231.125 169.31 230.101 170.334C229.119 171.316 227.669 171.806 225.749 171.806C223.829 171.806 222.357 171.316 221.333 170.334C220.351 169.31 219.861 167.838 219.861 165.918Z" fill="#011F54"/>
</svg>
