<svg width="375" height="1490" viewBox="0 0 375 1490" fill="none" xmlns="http://www.w3.org/2000/svg">
<g clip-path="url(#clip0_2076_18756)">
<rect width="375" height="1490" fill="#EAFEE8"/>
<path d="M511.77 89.7186C558.756 82.0509 584.413 -0.343387 569.078 -94.3142C553.742 -188.285 503.221 -258.247 456.236 -250.58C430.826 -246.433 411.654 -220.432 401.83 -182.564C380.477 -215.344 354.033 -233.901 328.624 -229.754C303.214 -225.608 284.043 -199.607 274.218 -161.739C252.865 -194.519 226.422 -213.076 201.012 -208.929C154.027 -201.261 128.369 -118.867 143.705 -24.8962C159.04 69.0746 209.561 139.037 256.546 131.369C281.956 127.223 301.128 101.222 310.952 63.3537C332.305 96.1336 358.749 114.691 384.158 110.544C409.568 106.397 428.74 80.3961 438.564 42.5283C459.917 75.3082 486.361 93.8652 511.77 89.7186Z" fill="#A0E871"/>
<g clip-path="url(#clip1_2076_18756)">
<path d="M204.272 1719.9C266.197 1755.35 377.159 1677.96 452.112 1547.03C527.066 1416.11 537.627 1281.24 475.703 1245.79C442.214 1226.62 394.384 1240.45 345.663 1277.9C353.293 1216.92 341.004 1168.67 307.515 1149.5C274.027 1130.33 226.197 1144.16 177.476 1181.61C185.106 1120.63 172.817 1072.38 139.328 1053.21C77.4032 1017.76 -33.5587 1095.15 -108.512 1226.07C-183.466 1356.99 -194.027 1491.87 -132.103 1527.32C-98.6138 1546.49 -50.7838 1532.66 -2.06331 1495.21C-9.69317 1556.19 2.59611 1604.44 36.0848 1623.61C69.5735 1642.78 117.403 1628.95 166.124 1591.5C158.494 1652.47 170.783 1700.72 204.272 1719.9Z" fill="#A0E871"/>
</g>
</g>
<defs>
<clipPath id="clip0_2076_18756">
<rect width="375" height="1490" fill="white"/>
</clipPath>
<clipPath id="clip1_2076_18756">
<rect width="645.519" height="645.519" fill="white" transform="translate(612.594 1266.72) rotate(119.791)"/>
</clipPath>
</defs>
</svg>
