<svg width="292" height="172" viewBox="0 0 292 172" fill="none" xmlns="http://www.w3.org/2000/svg">
<path d="M147.266 19.7581H158.221C168.592 19.7583 177 28.1662 177 38.5374V53.1653L168.654 53.1663H160.308V38.5374C160.308 37.3852 159.373 36.4505 158.22 36.4505H147.167V53.0501L115 53.0491L115 44.7034V36.3577L147.092 36.3568V19.8314H124.737V3.138H147.266V19.7581Z" fill="#4542EB"/>
<path d="M168.257 0C171.906 0.000193526 174.864 2.95836 174.864 6.60742C174.864 8.53455 174.038 10.2678 172.721 11.4756L172.777 11.4766L172.559 11.6182C172.119 11.9966 171.63 12.3193 171.1 12.5723L163.735 17.3877L156.601 12.6768C155.883 12.367 155.231 11.9329 154.672 11.4023L154.519 11.3018H154.566C153.357 10.1043 152.607 8.44368 152.607 6.60742C152.607 2.95825 155.565 1.82973e-05 159.215 0C160.964 0 162.553 0.681211 163.735 1.79102C164.917 0.681017 166.507 0 168.257 0Z" fill="#3BB64B"/>
<path d="M33.4458 100.262L33.8938 77.4143H46.6298L47.0778 100.262H48.9978L49.4458 77.4143H66.9818L59.5578 120.166H41.4458L41.1258 110.438H39.2058L38.8858 120.166H20.7738L13.4138 77.4143H31.0778L31.5258 100.262H33.4458ZM68.5613 77.4143H94.9933V90.8543H82.6413V93.2223H92.6893V104.742H82.6413V106.726H94.9933V120.166H68.5613V77.4143ZM97.2488 77.4143H113.889V107.11H125.281V120.166H97.2488V77.4143ZM161.703 99.2383V101.798C161.703 108.284 160.295 113.084 157.479 116.198C154.663 119.27 150.311 120.806 144.423 120.806C138.194 120.806 133.501 119.014 130.343 115.43C127.229 111.804 125.671 106.257 125.671 98.7903C125.671 91.3663 127.293 85.841 130.535 82.2143C133.778 78.5877 138.621 76.7743 145.063 76.7743C156.114 76.7743 161.639 82.385 161.639 93.6063V96.6783H146.855V94.2463C146.855 93.0517 146.706 92.2197 146.407 91.7503C146.151 91.2383 145.725 90.9823 145.127 90.9823C144.786 90.9823 144.466 91.089 144.167 91.3023C143.911 91.473 143.677 91.857 143.463 92.4543C143.293 93.009 143.165 93.7983 143.079 94.8223C142.994 95.8463 142.951 97.169 142.951 98.7903C142.951 100.412 142.973 101.734 143.015 102.758C143.058 103.782 143.143 104.593 143.271 105.19C143.442 105.745 143.634 106.129 143.847 106.342C144.103 106.513 144.423 106.598 144.807 106.598C145.533 106.598 146.045 106.236 146.343 105.51C146.685 104.785 146.855 103.484 146.855 101.606V99.2383H161.703ZM162.796 98.7903C162.796 94.8223 163.223 91.4517 164.076 88.6783C164.93 85.905 166.188 83.6437 167.852 81.8943C169.516 80.1023 171.564 78.801 173.996 77.9903C176.428 77.1797 179.202 76.7743 182.316 76.7743C185.431 76.7743 188.204 77.1797 190.636 77.9903C193.068 78.801 195.116 80.1023 196.78 81.8943C198.444 83.6437 199.703 85.905 200.556 88.6783C201.41 91.4517 201.836 94.8223 201.836 98.7903C201.836 102.758 201.41 106.129 200.556 108.902C199.703 111.676 198.444 113.958 196.78 115.75C195.116 117.5 193.068 118.78 190.636 119.59C188.204 120.401 185.431 120.806 182.316 120.806C179.202 120.806 176.428 120.401 173.996 119.59C171.564 118.78 169.516 117.5 167.852 115.75C166.188 113.958 164.93 111.676 164.076 108.902C163.223 106.129 162.796 102.758 162.796 98.7903ZM180.076 98.7903C180.076 100.412 180.098 101.734 180.14 102.758C180.226 103.782 180.332 104.593 180.46 105.19C180.631 105.745 180.866 106.129 181.164 106.342C181.463 106.513 181.847 106.598 182.316 106.598C182.786 106.598 183.17 106.513 183.468 106.342C183.767 106.129 183.98 105.745 184.108 105.19C184.279 104.593 184.386 103.782 184.428 102.758C184.514 101.734 184.556 100.412 184.556 98.7903C184.556 97.169 184.514 95.8463 184.428 94.8223C184.386 93.7983 184.279 93.009 184.108 92.4543C183.98 91.857 183.767 91.473 183.468 91.3023C183.17 91.089 182.786 90.9823 182.316 90.9823C181.847 90.9823 181.463 91.089 181.164 91.3023C180.866 91.473 180.631 91.857 180.46 92.4543C180.332 93.009 180.226 93.7983 180.14 94.8223C180.098 95.8463 180.076 97.169 180.076 98.7903ZM228.005 90.8543L228.197 77.4143H248.933V120.166H232.293L234.021 101.542H231.653L229.861 120.166H222.949L221.157 101.67H218.981L220.389 120.166H203.749V77.4143H225.573L225.765 90.8543H228.005ZM251.499 77.4143H277.931V90.8543H265.579V93.2223H275.627V104.742H265.579V106.726H277.931V120.166H251.499V77.4143ZM64.9988 128.414H86.7588C88.8494 128.414 90.5988 128.649 92.0068 129.118C93.4574 129.545 94.6308 130.206 95.5268 131.102C96.4228 131.956 97.0628 133.022 97.4468 134.302C97.8734 135.54 98.0868 136.99 98.0868 138.654C98.0868 141.257 97.5961 143.326 96.6147 144.862C95.6334 146.398 94.0761 147.486 91.9428 148.126C94.3748 148.34 96.2308 149.257 97.5107 150.878C98.8334 152.5 99.4948 155.124 99.4948 158.75C99.4948 163.102 98.5134 166.26 96.5508 168.222C94.6308 170.185 91.6441 171.166 87.5908 171.166H64.9988V128.414ZM81.7028 142.558C82.1721 142.558 82.4708 142.409 82.5988 142.11C82.7694 141.769 82.8548 141.321 82.8548 140.766C82.8548 139.572 82.5348 138.974 81.8948 138.974H79.9748V142.558H81.7028ZM81.7668 160.798C82.4921 160.798 82.9614 160.628 83.1748 160.286C83.3881 159.902 83.4948 159.326 83.4948 158.558C83.4948 157.705 83.3881 157.129 83.1748 156.83C82.9614 156.532 82.5348 156.382 81.8948 156.382H80.0388V160.798H81.7668ZM107.414 128.414H129.366L137.43 171.166H119.894L119.766 161.246H117.206L117.078 171.166H99.4138L107.414 128.414ZM117.398 150.046H119.574L119.446 141.15H117.526L117.398 150.046ZM172.016 150.238V152.798C172.016 159.284 170.608 164.084 167.792 167.198C164.976 170.27 160.624 171.806 154.736 171.806C148.506 171.806 143.813 170.014 140.656 166.43C137.541 162.804 135.984 157.257 135.984 149.79C135.984 142.366 137.605 136.841 140.848 133.214C144.09 129.588 148.933 127.774 155.376 127.774C166.426 127.774 171.952 133.385 171.952 144.606V147.678H157.168V145.246C157.168 144.052 157.018 143.22 156.72 142.75C156.464 142.238 156.037 141.982 155.44 141.982C155.098 141.982 154.778 142.089 154.48 142.302C154.224 142.473 153.989 142.857 153.776 143.454C153.605 144.009 153.477 144.798 153.392 145.822C153.306 146.846 153.264 148.169 153.264 149.79C153.264 151.412 153.285 152.734 153.328 153.758C153.37 154.782 153.456 155.593 153.584 156.19C153.754 156.745 153.946 157.129 154.16 157.342C154.416 157.513 154.736 157.598 155.12 157.598C155.845 157.598 156.357 157.236 156.656 156.51C156.997 155.785 157.168 154.484 157.168 152.606V150.238H172.016ZM191.669 143.07L194.805 128.414H209.845L204.021 150.302L205.685 158.494H209.589V171.166H193.013L190.517 156.382H188.597L190.389 171.166H173.749V128.414H190.069V143.07H191.669ZM210.984 136.67V128.414H227.624V136.67L223.4 158.75H215.208L210.984 136.67ZM213.416 165.918C213.416 161.993 215.378 160.03 219.304 160.03C223.229 160.03 225.192 161.993 225.192 165.918C225.192 167.838 224.68 169.31 223.656 170.334C222.674 171.316 221.224 171.806 219.304 171.806C217.384 171.806 215.912 171.316 214.888 170.334C213.906 169.31 213.416 167.838 213.416 165.918Z" fill="#011F54"/>
</svg>
