<svg width="1024" height="1024" viewBox="0 0 1024 1024" fill="none" xmlns="http://www.w3.org/2000/svg">
<rect width="1024" height="1024" fill="#DFEFFF"/>
<path d="M511.971 683.49L511.967 768.823H172.212V598.158H511.967L511.971 683.49ZM653.601 426.864C763.055 426.865 851.787 515.598 851.788 625.053V768.761H681.124V625.053C681.123 609.853 668.796 597.529 653.597 597.529H512.552V426.864H653.601ZM512.552 426.658L268.83 426.663V255.998H512.557L512.552 426.658Z" fill="#3D87F5"/>
<path d="M698.919 226.177C732.86 226.177 760.377 253.998 760.378 288.313C760.377 308.376 750.959 326.205 736.361 337.565L736.74 337.613L734.236 339.143C731.95 340.769 729.551 342.242 727.051 343.546L656.871 386.553L588.006 344.52C584.009 342.632 580.247 340.33 576.772 337.67L576.681 337.613L576.696 337.608C561.908 326.25 552.368 308.4 552.367 288.313C552.368 253.999 580.184 226.178 614.498 226.177C630.911 226.177 645.831 232.551 656.938 242.946C667.925 232.55 682.684 226.177 698.919 226.177Z" fill="#3BB64B"/>
</svg>
