<svg width="86" height="86" viewBox="0 0 86 86" fill="none" xmlns="http://www.w3.org/2000/svg">
<path d="M78.8334 42.9998C78.8334 62.79 62.7903 78.8332 43.0001 78.8332C23.2099 78.8332 7.16675 62.79 7.16675 42.9998C7.16675 23.2096 23.2099 7.1665 43.0001 7.1665C62.7903 7.1665 78.8334 23.2096 78.8334 42.9998Z" fill="#C3DBFF"/>
<path d="M28.3343 42.9998L38.1115 54.1857L57.6659 31.814M78.8334 42.9998C78.8334 62.79 62.7903 78.8332 43.0001 78.8332C23.2099 78.8332 7.16675 62.79 7.16675 42.9998C7.16675 23.2096 23.2099 7.1665 43.0001 7.1665C62.7903 7.1665 78.8334 23.2096 78.8334 42.9998Z" stroke="#4542EB" stroke-width="3" stroke-linecap="round" stroke-linejoin="round"/>
</svg>
