<svg width="98" height="101" viewBox="0 0 98 101" fill="none" xmlns="http://www.w3.org/2000/svg">
<g clip-path="url(#clip0_416_24213)">
<path fill-rule="evenodd" clip-rule="evenodd" d="M48.6583 77.3701C68.6802 77.3701 86.0533 64.1277 94.7029 56.1497C98.1878 52.9352 98.1878 47.5638 94.7029 44.3493C86.0533 36.3714 68.6802 23.1289 48.6583 23.1289C28.6364 23.1289 11.2635 36.3714 2.61376 44.3494C-0.871257 47.5638 -0.871252 52.9352 2.61377 56.1497C11.2635 64.1277 28.6364 77.3701 48.6583 77.3701ZM48.6583 69.1709C58.7714 69.1709 66.9694 60.6996 66.9694 50.2494C66.9694 39.7995 58.7714 31.3281 48.6583 31.3281C38.5455 31.3281 30.3474 39.7995 30.3474 50.2494C30.3474 60.6996 38.5455 69.1709 48.6583 69.1709Z" fill="#FFFCF1"/>
</g>
<defs>
<clipPath id="clip0_416_24213">
<rect width="97.3173" height="100.561" fill="white"/>
</clipPath>
</defs>
</svg>
