<svg width="157" height="76" viewBox="0 0 157 76" fill="none" xmlns="http://www.w3.org/2000/svg">
<path d="M78.3264 33.9497H57.0702V23.2723H78.3264V33.9497ZM87.1875 12.5557C94.0353 12.5557 99.5867 18.1071 99.5867 24.955V33.9458H88.9094V24.955C88.9094 24.0041 88.1381 23.233 87.1872 23.233H78.363V12.5557H87.1875ZM78.363 12.5428L63.115 12.5431V1.86567H78.3633L78.363 12.5428Z" fill="#98BCFF"/>
<path d="M90.0227 0C92.1462 1.00363e-06 93.8677 1.74058 93.8678 3.88743C93.8678 5.14268 93.2785 6.25812 92.3652 6.9688L92.3889 6.97181L92.2323 7.06754C92.0893 7.16929 91.9392 7.26142 91.7827 7.34302L87.3921 10.0337L83.0837 7.40394C82.8336 7.28585 82.5982 7.14182 82.3808 6.97541L82.3751 6.97181L82.376 6.97151C81.4509 6.26094 80.854 5.14413 80.854 3.88743C80.854 1.74063 82.5943 7.32646e-05 84.7411 0C85.7679 4.7552e-07 86.7014 0.3988 87.3963 1.04913C88.0836 0.398727 89.007 3.04292e-05 90.0227 0Z" fill="#A0E871"/>
<path d="M128.696 40.9965H141.884V74.881H128.696V40.9965Z" fill="#F9F7EF"/>
<path d="M143.316 40.9965H156.505V74.881H143.316V40.9965Z" fill="#F9F7EF"/>
<path d="M104.968 40.9965H118.156V64.5331H127.186V74.8811H104.968V40.9965Z" fill="#F9F7EF"/>
<path d="M77.1359 59.1055L77.491 40.9965H87.5853L87.9404 59.1055H89.4622L89.8172 40.9965H103.716L97.8319 74.8811H83.4766L83.2229 67.1708H81.7012L81.4476 74.8811H67.0923L61.2588 40.9965H75.259L75.6141 59.1055H77.1359Z" fill="#F9F7EF"/>
<path d="M31.0475 57.9388C31.0475 54.7938 31.3857 52.1223 32.062 49.9242C32.7383 47.7261 33.7359 45.9338 35.0548 44.5473C36.3737 43.127 37.9969 42.0955 39.9244 41.453C41.852 40.8105 44.0501 40.4892 46.5187 40.4892C48.9874 40.4892 51.1855 40.8105 53.1131 41.453C55.0406 42.0955 56.6638 43.127 57.9827 44.5473C59.3015 45.9338 60.2991 47.7261 60.9755 49.9242C61.6518 52.1223 61.99 54.7938 61.99 57.9388C61.99 61.0837 61.6518 63.7553 60.9755 65.9534C60.2991 68.1515 59.3015 69.9607 57.9827 71.381C56.6638 72.7675 55.0406 73.782 53.1131 74.4245C51.1855 75.0671 48.9874 75.3883 46.5187 75.3883C44.0501 75.3883 41.852 75.0671 39.9244 74.4245C37.9969 73.782 36.3737 72.7675 35.0548 71.381C33.7359 69.9607 32.7383 68.1515 32.062 65.9534C31.3857 63.7553 31.0475 61.0837 31.0475 57.9388ZM44.7434 57.9388C44.7434 59.2238 44.7603 60.2721 44.7941 61.0837C44.8617 61.8954 44.9463 62.5379 45.0477 63.0113C45.183 63.4509 45.369 63.7553 45.6057 63.9244C45.8424 64.0596 46.1468 64.1273 46.5187 64.1273C46.8907 64.1273 47.1951 64.0596 47.4318 63.9244C47.6685 63.7553 47.8376 63.4509 47.9391 63.0113C48.0743 62.5379 48.1589 61.8954 48.1927 61.0837C48.2603 60.2721 48.2941 59.2238 48.2941 57.9388C48.2941 56.6537 48.2603 55.6054 48.1927 54.7938C48.1589 53.9822 48.0743 53.3566 47.9391 52.917C47.8376 52.4435 47.6685 52.1392 47.4318 52.0039C47.1951 51.8348 46.8907 51.7503 46.5187 51.7503C46.1468 51.7503 45.8424 51.8348 45.6057 52.0039C45.369 52.1392 45.183 52.4435 45.0477 52.917C44.9463 53.3566 44.8617 53.9822 44.7941 54.7938C44.7603 55.6054 44.7434 56.6537 44.7434 57.9388Z" fill="#F9F7EF"/>
<path d="M20.2394 56.417L17.7539 40.9965H29.5222V74.8811H14.2031L11.4132 59.7649H9.63783L12.1234 74.8811H0V40.9965H15.6234L18.464 56.417H20.2394Z" fill="#F9F7EF"/>
</svg>
