<svg width="109" height="115" viewBox="0 0 109 115" fill="none" xmlns="http://www.w3.org/2000/svg">
<rect width="109.009" height="115" rx="14.5348" fill="#FFFCF1"/>
<path d="M55.9395 49.7674H68.3525C80.1036 49.7677 89.6298 59.2936 89.6299 71.0447L89.6289 87.6199L70.7158 87.619V71.0447C70.7157 69.7391 69.6572 68.6805 68.3516 68.6805H55.8281L55.8271 78.0311L55.8281 87.4871H19.3799V68.574H55.7422V49.8475L30.4121 49.8484V30.9354L55.9395 30.9344V49.7674Z" fill="#4542EB"/>
<path d="M79.7217 27.3796C83.8563 27.3797 87.2079 30.7313 87.208 34.866C87.208 37.0486 86.2733 39.0122 84.7832 40.3806L84.8438 40.3816L84.6074 40.5359C84.1047 40.9695 83.5445 41.3379 82.9385 41.6267L74.5986 47.0808L66.5156 41.7419C65.7022 41.391 64.9639 40.9003 64.3301 40.2996L64.1572 40.1853H64.21C62.8401 38.8285 61.9912 36.9464 61.9912 34.866C61.9914 30.7315 65.343 27.3798 69.4775 27.3796C71.459 27.3796 73.2595 28.1511 74.5986 29.408C75.9379 28.1504 77.7396 27.3796 79.7217 27.3796Z" fill="#FF8F26"/>
</svg>
