<svg width="32" height="32" viewBox="0 0 32 32" fill="none" xmlns="http://www.w3.org/2000/svg">
<rect width="32" height="32" rx="16" fill="#C3DBFF"/>
<path d="M22.2887 20.9615C22.4649 21.1376 22.5638 21.3765 22.5638 21.6256C22.5638 21.8746 22.4649 22.1135 22.2887 22.2896C22.1126 22.4657 21.8737 22.5647 21.6247 22.5647C21.3756 22.5647 21.1367 22.4657 20.9606 22.2896L16.0005 17.3279L11.0387 22.2881C10.8626 22.4642 10.6237 22.5631 10.3747 22.5631C10.1256 22.5631 9.88673 22.4642 9.71061 22.2881C9.53449 22.1119 9.43555 21.8731 9.43555 21.624C9.43555 21.3749 9.53449 21.136 9.71061 20.9599L14.6723 15.9998L9.71217 11.0381C9.53605 10.8619 9.43711 10.6231 9.43711 10.374C9.43711 10.1249 9.53605 9.88605 9.71217 9.70993C9.88829 9.53381 10.1272 9.43486 10.3762 9.43486C10.6253 9.43486 10.8642 9.53381 11.0403 9.70993L16.0005 14.6716L20.9622 9.70915C21.1383 9.53303 21.3772 9.43408 21.6262 9.43408C21.8753 9.43408 22.1142 9.53303 22.2903 9.70915C22.4664 9.88527 22.5654 10.1241 22.5654 10.3732C22.5654 10.6223 22.4664 10.8612 22.2903 11.0373L17.3286 15.9998L22.2887 20.9615Z" fill="#3D87F5"/>
</svg>
