<svg width="32" height="32" viewBox="0 0 32 32" fill="none" xmlns="http://www.w3.org/2000/svg">
<rect width="32" height="32" rx="16" fill="#C4ECC0"/>
<path d="M22.2868 20.9615C22.4629 21.1376 22.5618 21.3765 22.5618 21.6256C22.5618 21.8746 22.4629 22.1135 22.2868 22.2896C22.1107 22.4657 21.8718 22.5647 21.6227 22.5647C21.3736 22.5647 21.1348 22.4657 20.9587 22.2896L15.9985 17.3279L11.0368 22.2881C10.8607 22.4642 10.6218 22.5631 10.3727 22.5631C10.1236 22.5631 9.88478 22.4642 9.70866 22.2881C9.53254 22.1119 9.43359 21.8731 9.43359 21.624C9.43359 21.3749 9.53254 21.136 9.70866 20.9599L14.6704 15.9998L9.71022 11.0381C9.5341 10.8619 9.43516 10.6231 9.43516 10.374C9.43516 10.1249 9.5341 9.88605 9.71022 9.70993C9.88634 9.53381 10.1252 9.43486 10.3743 9.43486C10.6234 9.43486 10.8622 9.53381 11.0383 9.70993L15.9985 14.6716L20.9602 9.70915C21.1363 9.53303 21.3752 9.43408 21.6243 9.43408C21.8734 9.43408 22.1122 9.53303 22.2883 9.70915C22.4645 9.88527 22.5634 10.1241 22.5634 10.3732C22.5634 10.6223 22.4645 10.8612 22.2883 11.0373L17.3266 15.9998L22.2868 20.9615Z" fill="#011F54"/>
</svg>
