<svg width="108" height="107" viewBox="0 0 108 107" fill="none" xmlns="http://www.w3.org/2000/svg">
<ellipse cx="53.6586" cy="53.0788" rx="53.5248" ry="53.0788" fill="#4542EB" fill-opacity="0.4"/>
<circle cx="53.6586" cy="53.0785" r="38.5531" fill="#4542EB"/>
<path d="M81.283 54.7431C81.2889 55.6961 80.9996 56.6275 80.4549 57.4092C79.9102 58.1908 79.1368 58.7843 78.2412 59.108L63.1636 64.6591L57.6171 79.7376C57.2887 80.6306 56.6944 81.4014 55.9145 81.9458C55.1346 82.4902 54.2067 82.7821 53.2558 82.7821C52.305 82.7821 51.377 82.4902 50.5972 81.9458C49.8173 81.4014 49.223 80.6306 48.8946 79.7376L43.3335 64.6766L28.2646 59.1256C27.3723 58.7968 26.6022 58.2021 26.0583 57.4216C25.5143 56.641 25.2227 55.7123 25.2227 54.7607C25.2227 53.809 25.5143 52.8803 26.0583 52.0998C26.6022 51.3192 27.3723 50.7245 28.2646 50.3958L43.3423 44.8447L48.8887 29.7662C49.2172 28.8731 49.8114 28.1024 50.5913 27.558C51.3712 27.0136 52.2992 26.7217 53.25 26.7217C54.2008 26.7217 55.1288 27.0136 55.9087 27.558C56.6886 28.1024 57.2828 28.8731 57.6113 29.7662L63.1577 44.8564L78.2237 50.4074C79.1179 50.7266 79.8917 51.3144 80.4393 52.0905C80.9869 52.8666 81.2816 53.793 81.283 54.7431Z" fill="#FFFCF1"/>
</svg>
