<svg width="62" height="54" viewBox="0 0 62 54" fill="none" xmlns="http://www.w3.org/2000/svg">
<path d="M32.2666 19.7581H43.2217C53.5929 19.7582 62.0009 28.1661 62.001 38.5374V53.1653L53.6543 53.1663H45.3086V38.5374C45.3085 37.3851 44.373 36.4504 43.2207 36.4504H32.168V53.05L0.000976562 53.0491L0 44.7034V36.3577L32.0928 36.3567V19.8313H9.7373V3.13794H32.2666V19.7581Z" fill="#FF8F26"/>
<path d="M53.2573 0C56.9063 0.000193526 59.8647 2.95836 59.8647 6.60742C59.8647 8.53455 59.0383 10.2678 57.7222 11.4756L57.7778 11.4766L57.5601 11.6182C57.1198 11.9966 56.6307 12.3193 56.1011 12.5723L48.7358 17.3877L41.6021 12.6768C40.8836 12.367 40.2321 11.9329 39.6724 11.4023L39.52 11.3018H39.5669C38.3577 10.1043 37.6079 8.44368 37.6079 6.60742C37.6079 2.95825 40.5662 1.82973e-05 44.2153 0C45.9646 0 47.5538 0.681211 48.7358 1.79102C49.9179 0.681017 51.5079 0 53.2573 0Z" fill="#3BB64B"/>
</svg>
