<svg width="96" height="96" viewBox="0 0 96 96" fill="none" xmlns="http://www.w3.org/2000/svg">
<rect width="96" height="96" rx="48" fill="#011F54"/>
<path d="M38.2367 29.4718L42.824 25.1389C43.5074 24.4933 44.5698 24.4737 45.2766 25.0936L57.6228 35.9223C58.0173 36.2682 58.2435 36.7674 58.2435 37.2921V57.4127C58.2435 57.8792 58.0645 58.328 57.7434 58.6665L46.2687 70.7655C45.557 71.5159 44.3641 71.5242 43.6421 70.7837L38.113 65.1136C37.4433 64.4268 37.4208 63.3383 38.0615 62.6244L50.9602 48.2536C51.5897 47.5523 51.5805 46.4866 50.939 45.7962L38.1531 32.0367C37.472 31.3038 37.5094 30.1588 38.2367 29.4718Z" fill="#A0E871"/>
</svg>
