<svg width="116" height="115" viewBox="0 0 116 115" fill="none" xmlns="http://www.w3.org/2000/svg">
<g filter="url(#filter0_d_1_15621)">
<path d="M111.05 53.0788C111.05 82.3933 87.0857 106.158 57.5248 106.158C27.9639 106.158 4 82.3933 4 53.0788C4 23.7642 27.9639 0 57.5248 0C87.0857 0 111.05 23.7642 111.05 53.0788Z" fill="#4542EB" fill-opacity="0.4" shape-rendering="crispEdges"/>
<path d="M57.5244 0.5C86.8132 0.5 110.55 24.0446 110.55 53.0791C110.55 82.1134 86.813 105.657 57.5244 105.657C28.236 105.657 4.50019 82.1133 4.5 53.0791C4.5 24.0447 28.2359 0.500204 57.5244 0.5Z" stroke="black" shape-rendering="crispEdges"/>
</g>
<circle cx="57.5248" cy="53.0785" r="38.5531" fill="#4542EB"/>
<path d="M85.1492 54.7431C85.1551 55.6961 84.8658 56.6275 84.3211 57.4092C83.7764 58.1908 83.003 58.7843 82.1074 59.108L67.0298 64.6591L61.4833 79.7376C61.1549 80.6306 60.5606 81.4014 59.7807 81.9458C59.0009 82.4902 58.0729 82.7821 57.122 82.7821C56.1712 82.7821 55.2432 82.4902 54.4634 81.9458C53.6835 81.4014 53.0892 80.6306 52.7608 79.7376L47.1997 64.6766L32.1309 59.1256C31.2385 58.7968 30.4685 58.2021 29.9245 57.4216C29.3805 56.641 29.0889 55.7123 29.0889 54.7607C29.0889 53.809 29.3805 52.8803 29.9245 52.0998C30.4685 51.3192 31.2385 50.7245 32.1309 50.3958L47.2085 44.8447L52.7549 29.7662C53.0834 28.8731 53.6777 28.1024 54.4575 27.558C55.2374 27.0136 56.1654 26.7217 57.1162 26.7217C58.0671 26.7217 58.995 27.0136 59.7749 27.558C60.5548 28.1024 61.149 28.8731 61.4775 29.7662L67.0239 44.8564L82.0899 50.4074C82.9841 50.7266 83.7579 51.3144 84.3055 52.0905C84.8531 52.8666 85.1478 53.793 85.1492 54.7431Z" fill="#FFFCF1"/>
<defs>
<filter id="filter0_d_1_15621" x="0" y="0" width="115.05" height="114.157" filterUnits="userSpaceOnUse" color-interpolation-filters="sRGB">
<feFlood flood-opacity="0" result="BackgroundImageFix"/>
<feColorMatrix in="SourceAlpha" type="matrix" values="0 0 0 0 0 0 0 0 0 0 0 0 0 0 0 0 0 0 127 0" result="hardAlpha"/>
<feOffset dy="4"/>
<feGaussianBlur stdDeviation="2"/>
<feComposite in2="hardAlpha" operator="out"/>
<feColorMatrix type="matrix" values="0 0 0 0 0 0 0 0 0 0 0 0 0 0 0 0 0 0 0.25 0"/>
<feBlend mode="normal" in2="BackgroundImageFix" result="effect1_dropShadow_1_15621"/>
<feBlend mode="normal" in="SourceGraphic" in2="effect1_dropShadow_1_15621" result="shape"/>
</filter>
</defs>
</svg>
